<mxfile host="app.diagrams.net" agent="Mozilla/5.0 (Macintosh; Intel Mac OS X 10_15_7) AppleWebKit/537.36 (KHTML, like Gecko) Chrome/131.0.0.0 Safari/537.36" version="26.0.5">
  <diagram name="Page-1" id="ERslboNfqcoMrDqHIuSz">
    <mxGraphModel dx="1120" dy="1145" grid="1" gridSize="10" guides="1" tooltips="1" connect="1" arrows="1" fold="1" page="1" pageScale="1" pageWidth="850" pageHeight="1100" math="0" shadow="0">
      <root>
        <mxCell id="0" />
        <mxCell id="1" parent="0" />
        <mxCell id="beCb4B8EPppUOvUg8-ct-13" style="edgeStyle=orthogonalEdgeStyle;rounded=0;orthogonalLoop=1;jettySize=auto;html=1;exitX=0.5;exitY=0;exitDx=0;exitDy=0;entryX=0.5;entryY=1;entryDx=0;entryDy=0;" edge="1" parent="1" source="beCb4B8EPppUOvUg8-ct-1" target="beCb4B8EPppUOvUg8-ct-5">
          <mxGeometry relative="1" as="geometry" />
        </mxCell>
        <mxCell id="beCb4B8EPppUOvUg8-ct-1" value="DocumentMomento" style="swimlane;fontStyle=0;childLayout=stackLayout;horizontal=1;startSize=26;fillColor=none;horizontalStack=0;resizeParent=1;resizeParentMax=0;resizeLast=0;collapsible=1;marginBottom=0;whiteSpace=wrap;html=1;" vertex="1" parent="1">
          <mxGeometry x="360" y="450" width="160" height="52" as="geometry" />
        </mxCell>
        <mxCell id="beCb4B8EPppUOvUg8-ct-2" value="content (Immutable)" style="text;strokeColor=none;fillColor=none;align=left;verticalAlign=top;spacingLeft=4;spacingRight=4;overflow=hidden;rotatable=0;points=[[0,0.5],[1,0.5]];portConstraint=eastwest;whiteSpace=wrap;html=1;" vertex="1" parent="beCb4B8EPppUOvUg8-ct-1">
          <mxGeometry y="26" width="160" height="26" as="geometry" />
        </mxCell>
        <mxCell id="beCb4B8EPppUOvUg8-ct-5" value="Document" style="swimlane;fontStyle=0;childLayout=stackLayout;horizontal=1;startSize=26;fillColor=none;horizontalStack=0;resizeParent=1;resizeParentMax=0;resizeLast=0;collapsible=1;marginBottom=0;whiteSpace=wrap;html=1;" vertex="1" parent="1">
          <mxGeometry x="360" y="260" width="160" height="104" as="geometry" />
        </mxCell>
        <mxCell id="beCb4B8EPppUOvUg8-ct-6" value="Save()" style="text;strokeColor=none;fillColor=none;align=left;verticalAlign=top;spacingLeft=4;spacingRight=4;overflow=hidden;rotatable=0;points=[[0,0.5],[1,0.5]];portConstraint=eastwest;whiteSpace=wrap;html=1;" vertex="1" parent="beCb4B8EPppUOvUg8-ct-5">
          <mxGeometry y="26" width="160" height="26" as="geometry" />
        </mxCell>
        <mxCell id="beCb4B8EPppUOvUg8-ct-7" value="Restore()" style="text;strokeColor=none;fillColor=none;align=left;verticalAlign=top;spacingLeft=4;spacingRight=4;overflow=hidden;rotatable=0;points=[[0,0.5],[1,0.5]];portConstraint=eastwest;whiteSpace=wrap;html=1;" vertex="1" parent="beCb4B8EPppUOvUg8-ct-5">
          <mxGeometry y="52" width="160" height="26" as="geometry" />
        </mxCell>
        <mxCell id="beCb4B8EPppUOvUg8-ct-8" value="Print()" style="text;strokeColor=none;fillColor=none;align=left;verticalAlign=top;spacingLeft=4;spacingRight=4;overflow=hidden;rotatable=0;points=[[0,0.5],[1,0.5]];portConstraint=eastwest;whiteSpace=wrap;html=1;" vertex="1" parent="beCb4B8EPppUOvUg8-ct-5">
          <mxGeometry y="78" width="160" height="26" as="geometry" />
        </mxCell>
        <mxCell id="beCb4B8EPppUOvUg8-ct-9" value="CareTaker" style="swimlane;fontStyle=0;childLayout=stackLayout;horizontal=1;startSize=26;fillColor=none;horizontalStack=0;resizeParent=1;resizeParentMax=0;resizeLast=0;collapsible=1;marginBottom=0;whiteSpace=wrap;html=1;" vertex="1" parent="1">
          <mxGeometry x="360" y="570" width="160" height="78" as="geometry" />
        </mxCell>
        <mxCell id="beCb4B8EPppUOvUg8-ct-10" value="SaveState(Document)&lt;div&gt;&lt;br&gt;&lt;/div&gt;" style="text;strokeColor=none;fillColor=none;align=left;verticalAlign=top;spacingLeft=4;spacingRight=4;overflow=hidden;rotatable=0;points=[[0,0.5],[1,0.5]];portConstraint=eastwest;whiteSpace=wrap;html=1;" vertex="1" parent="beCb4B8EPppUOvUg8-ct-9">
          <mxGeometry y="26" width="160" height="26" as="geometry" />
        </mxCell>
        <mxCell id="beCb4B8EPppUOvUg8-ct-11" value="RestoreState(Document)&lt;div&gt;&lt;br&gt;&lt;/div&gt;" style="text;strokeColor=none;fillColor=none;align=left;verticalAlign=top;spacingLeft=4;spacingRight=4;overflow=hidden;rotatable=0;points=[[0,0.5],[1,0.5]];portConstraint=eastwest;whiteSpace=wrap;html=1;" vertex="1" parent="beCb4B8EPppUOvUg8-ct-9">
          <mxGeometry y="52" width="160" height="26" as="geometry" />
        </mxCell>
        <mxCell id="beCb4B8EPppUOvUg8-ct-12" style="edgeStyle=orthogonalEdgeStyle;rounded=0;orthogonalLoop=1;jettySize=auto;html=1;exitX=0.5;exitY=0;exitDx=0;exitDy=0;entryX=0.438;entryY=1;entryDx=0;entryDy=0;entryPerimeter=0;" edge="1" parent="1" source="beCb4B8EPppUOvUg8-ct-9" target="beCb4B8EPppUOvUg8-ct-2">
          <mxGeometry relative="1" as="geometry" />
        </mxCell>
        <mxCell id="beCb4B8EPppUOvUg8-ct-15" style="edgeStyle=orthogonalEdgeStyle;rounded=0;orthogonalLoop=1;jettySize=auto;html=1;exitX=1;exitY=0.5;exitDx=0;exitDy=0;entryX=0;entryY=0.5;entryDx=0;entryDy=0;" edge="1" parent="1" source="beCb4B8EPppUOvUg8-ct-14" target="beCb4B8EPppUOvUg8-ct-6">
          <mxGeometry relative="1" as="geometry" />
        </mxCell>
        <mxCell id="beCb4B8EPppUOvUg8-ct-14" value="Client" style="html=1;whiteSpace=wrap;" vertex="1" parent="1">
          <mxGeometry x="50" y="280" width="110" height="50" as="geometry" />
        </mxCell>
        <mxCell id="beCb4B8EPppUOvUg8-ct-16" value="+------------------+                     +-------------------------+&#xa;|      Client      |                     |      Document           |&#xa;+------------------+                     +-------------------------+&#xa;| - Main()         |-------------------&gt; | - Content (state)       |&#xa;| Directly modifies|                     | - PrintState()          |&#xa;| and manages      |                     +-------------------------+&#xa;| state manually   |&#xa;+------------------+" style="text;whiteSpace=wrap;" vertex="1" parent="1">
          <mxGeometry x="240" y="50" width="320" height="140" as="geometry" />
        </mxCell>
      </root>
    </mxGraphModel>
  </diagram>
</mxfile>
